<svg width="187" height="54" viewBox="0 0 187 54" fill="none" xmlns="http://www.w3.org/2000/svg">
<g clip-path="url(#clip0_368_1192)">
<path d="M47.6344 6.82485C49.8905 6.14238 52.375 6.45518 53.7458 8.55944C55.7735 11.659 53.0319 14.6448 51.9752 17.5737C50.0618 22.9481 49.8048 29.7443 51.5469 35.204C53.2889 40.6637 54.5455 41.0049 54.5169 43.0808C54.4312 46.4931 50.6615 48.2277 47.6344 47.204C48.8053 50.5594 46.7491 53.7727 43.2364 54.0002C39.2097 52.6637 35.8398 50.6448 31.4989 50.0476C22.5887 48.8248 20.304 51.1566 12.7932 53.6021C8.70935 54.9102 5.51082 51.1566 6.79594 47.204C5.02533 47.5737 3.82588 47.8012 2.25517 46.749C-2.54263 43.5642 1.74112 39.1282 2.94057 35.2609C4.73974 29.5452 4.45416 22.6637 2.3694 17.0618C0.284643 11.4599 -1.4003 11.4315 0.941484 8.27508C2.28373 6.48361 4.73974 6.19925 6.76739 6.82485C6.31045 4.83432 6.36757 2.81537 7.93828 1.30826C11.1939 -1.8197 15.135 1.76323 18.6191 2.8438C22.1032 3.92437 29.7568 4.49309 34.469 3.27034C37.0963 2.58788 41.8085 -0.284159 44.0075 0.000201195C46.2064 0.284561 48.7481 4.06655 47.6058 6.82485H47.6344ZM42.7794 11.659C42.551 11.4315 39.8665 13.6495 39.4952 13.9339C37.1535 15.8391 30.8706 21.9528 28.4432 22.55C26.0157 23.1471 25.673 22.55 24.1309 21.5547C20.3326 19.0808 16.6771 14.9007 12.936 12.2277C12.5362 11.9433 12.1935 11.5737 11.6509 11.659C11.5937 11.7158 12.1078 12.4836 12.222 12.6542C15.0207 16.294 19.7614 20.4457 22.0461 24.1993C24.3308 27.9528 23.2741 27.8391 21.7605 30.1139L12.222 41.5168C13.3072 41.4599 14.3639 40.4647 15.2207 39.8106C17.5339 38.0476 23.9024 31.8201 26.1299 31.3651C28.3575 30.9102 29.4141 31.5357 30.7564 32.6163L42.4939 42.3983C42.5795 41.6305 42.0369 41.1187 41.6371 40.55C39.124 37.0523 35.24 33.7538 32.8411 30.2561C30.4422 26.7585 31.2704 27.5831 31.7845 25.5926C32.2985 23.6021 39.4952 16.0666 41.3515 13.7917C43.2078 11.5168 42.9794 11.858 42.7794 11.659Z" fill="#141414"/>
<path d="M108.749 50.9008C108.635 50.2468 108.749 50.4458 109.121 50.2752C110.977 49.2799 111.805 49.3937 112.148 46.7491C112.948 40.4648 112.119 31.2515 112.148 24.5975C112.176 19.0809 113.005 13.1378 112.405 7.59273C112.262 6.39842 111.834 4.46477 110.663 3.92448C109.492 3.3842 109.064 4.12354 109.321 2.87235C116.917 3.15671 124.771 2.50268 132.339 2.87235C139.907 3.24202 146.247 4.72069 146.989 12.7396C147.732 20.7586 143.276 21.7254 138.536 25.024C138.364 25.1662 137.708 25.2231 138.165 25.6496C138.621 26.0761 140.164 26.133 140.735 26.3889C147.817 29.4316 151.815 35.3747 149.331 43.1662C148.074 47.0619 143.334 50.9577 139.164 50.9577H108.749V50.9008ZM125.313 25.3084C133.167 24.7965 139.078 20.7302 137.508 12.1425C135.937 3.55482 133.995 5.31785 129.968 4.86287C125.942 4.4079 123.286 4.63538 122.6 4.86287C121.915 5.09036 121.886 7.13775 121.829 7.79178C121.144 17.0051 121.686 27.4695 121.572 36.825C121.572 37.5074 121.287 38.133 121.258 38.787C121.229 40.6638 120.944 46.3795 121.401 47.7728C121.858 49.1662 123.743 49.1093 124.828 49.1946C133.767 49.8771 141.392 48.3415 140.678 37.678C140.164 29.9719 134.909 27.0145 127.941 25.9055C127.055 25.7633 125.713 26.2468 125.256 25.3084H125.313Z" fill="#141414"/>
<path d="M61.9149 50.9001C61.2867 50.4167 63.7998 49.6773 64.0568 49.4783C65.9131 48.1702 65.1991 45.0707 65.3419 43.0802C65.9417 32.9285 65.7989 22.5209 65.3419 12.3977C65.2563 10.2935 65.856 6.42616 64.5137 4.77687C63.1715 3.12758 61.9149 4.0944 62.2291 2.84322C74.6234 3.75317 89.9021 -0.22787 100.212 8.38824C112.406 18.5968 110.407 40.7484 96.4705 48.4546C94.9855 49.2792 91.1016 50.9001 89.5023 50.9001H61.9435H61.9149ZM75.5373 4.89061C74.6805 5.14654 74.5377 6.48303 74.4806 7.2508C73.5953 16.8906 74.7947 27.9238 74.195 37.7058C75.0518 40.6063 73.938 44.5589 74.5663 47.2887C75.1946 50.0186 81.306 49.3361 83.2195 49.1939C96.7275 48.1987 99.9261 35.63 98.4696 24.0565C97.2987 14.957 93.272 6.8527 83.4194 5.20341C73.5667 3.55412 76.9081 4.49251 75.5658 4.89061H75.5373Z" fill="#141414"/>
<path d="M183.859 3.12767V11.6585C183.202 11.8007 183.402 11.6016 183.202 11.2888C182.631 10.3789 182.545 9.52578 181.717 8.53051C177.062 2.87175 162.697 2.92862 161.126 11.3741C159.356 21.0139 169.094 20.9002 175.634 22.8338C183.002 25.0234 187.514 29.5447 186.972 37.649C185.886 53.7153 165.381 52.8623 154.015 49.4499C152.987 49.2793 153.13 50.6443 152.159 50.6158V41.2319C153.13 41.1751 153.044 42.9381 153.473 43.7627C157.328 51.5542 177.033 51.9239 177.576 39.3836C178.118 26.8433 168.58 30.739 162.297 28.4357C155.3 25.9049 150.246 21.0708 152.016 13.0518C154.215 3.0708 164.553 1.99023 173.149 2.53051C175.662 2.70113 179.004 3.81014 181.203 3.83857C183.402 3.86701 182.888 3.12767 183.859 3.09923V3.12767Z" fill="#141414"/>
<path d="M42.7795 11.6591C42.9794 11.8582 41.58 13.5075 41.3516 13.7918C39.4953 16.0667 32.3271 23.4885 31.7845 25.5928C31.2419 27.697 31.7845 28.6639 32.8412 30.2563C35.2401 33.7539 39.1526 37.0525 41.6372 40.5501C42.037 41.1188 42.5796 41.6307 42.4939 42.3985L30.7564 32.6165C29.4142 31.5643 27.8435 31.024 26.13 31.3653C24.4165 31.7065 17.5054 38.0762 15.2207 39.8108C14.3639 40.4648 13.3358 41.4601 12.2221 41.5169L21.7605 30.1141C23.2741 27.8392 23.5312 26.6165 22.0461 24.1994C19.7615 20.4458 15.0208 16.2942 12.2221 12.6544C12.1078 12.4838 11.5938 11.716 11.6509 11.6591C12.1935 11.5738 12.5362 11.9435 12.936 12.2278C16.6772 14.9008 20.3326 19.1094 24.1309 21.5548C25.673 22.5501 26.5298 23.0051 28.4432 22.5501C30.3566 22.0951 37.1535 15.8392 39.4953 13.934C39.8665 13.6212 42.551 11.4316 42.7795 11.6591Z" fill="#FEFDFD"/>
</g>
<defs>
<clipPath id="clip0_368_1192">
<rect width="187" height="54" fill="white"/>
</clipPath>
</defs>
</svg>
