<svg width="262" height="68" viewBox="0 0 262 68" fill="none" xmlns="http://www.w3.org/2000/svg">
<g clip-path="url(#clip0_370_1439)">
<path d="M262 0V68H0V0H262ZM22.6697 4.14213C16.4918 4.15939 10.3312 4.12487 4.15324 4.14213V63.8579C10.1408 63.7716 16.163 63.9614 22.1506 63.8579C28.1382 63.7543 23.4312 63.9269 23.9676 63.8579C24.5041 63.7888 24.331 63.8924 24.2272 63.599C24.0196 63.064 22.6698 61.5624 22.2544 60.9066C21.8391 60.2508 21.4065 59.2843 20.9392 58.5076C19.7625 55.4528 18.5338 52.4497 17.8762 49.2223C14.2768 31.601 20.0394 16.8274 32.7067 4.72893C32.949 4.50457 33.4855 4.48731 33.1394 4.14213C31.8415 4.10761 30.5436 4.19391 29.2457 4.14213C27.0306 4.05584 24.8675 4.14213 22.6697 4.14213ZM44.8203 4.14213H41.4458C41.0997 4.14213 36.9984 7.59391 36.4273 8.11167C24.3657 19.0883 18.8626 34.3624 21.5103 50.603C22.2544 55.1939 23.9503 59.9228 26.3904 63.8579H44.8203V4.14213ZM257.847 4.14213H48.9736V63.8579H257.847V4.14213Z" fill="#FCFCFD"/>
<path d="M257.846 4.14258V63.8583H48.9727V4.14258H257.846ZM109.195 21.4015H104.868V25.5436H109.195V21.4015ZM75.4495 22.437H61.9515V45.2187H75.4495V41.5944H66.6239V35.2086H74.5843V31.5842H66.6239V26.0614H75.4495V22.437ZM200.047 39.3507L191.134 22.437H185.683V45.2187H190.01V28.305L198.662 45.2187H204.373V22.437H200.047V39.3507ZM216.746 22.437C214.098 22.2126 210.81 22.437 208.094 22.437C205.377 22.437 207.834 22.6786 207.834 22.6959V45.2187H217.092C217.559 45.2187 219.255 44.7872 219.775 44.6147C225.676 42.5436 225.243 34.0522 218.736 33.4827L220.328 32.9131C224.014 31.2908 224.17 25.7852 220.865 23.6796C219.844 23.0238 217.957 22.5405 216.746 22.437ZM226.35 45.2187C233.896 45.3395 244.002 46.1162 245.542 36.4857C247.065 26.907 241.769 22.8339 232.857 22.437C230.694 22.3334 228.514 22.5233 226.368 22.437V45.2187H226.35ZM143.978 23.8177L139.652 25.0258V28.4776H136.364V31.4979C136.364 31.5152 136.606 31.7568 136.623 31.7568H139.652V41.3355C139.652 41.7497 140.205 43.0441 140.482 43.4411C142.161 46.0126 145.466 45.84 148.131 45.2187V41.7669C147.11 42.1639 145.241 42.5263 144.532 41.4735C143.822 40.4208 143.978 40.1791 143.978 39.9548V31.7568H147.699C147.716 31.7568 147.958 31.5152 147.958 31.4979V28.4776H143.978V23.8177ZM102.273 45.2187V32.8786C102.273 32.5334 101.84 31.101 101.667 30.7213C99.919 26.8898 93.7238 27.4593 91.8029 30.8938C90.2108 27.7355 85.8153 27.235 83.1503 29.3405L81.8524 30.7213V28.4776H77.6992V45.2187H82.0255V35.9852C82.0255 35.4502 82.3543 34.1385 82.562 33.5862C83.1849 31.8949 84.7424 30.9284 86.5075 31.6878C88.2727 32.4471 87.7362 32.9304 87.7362 33.3964V44.9598C87.7362 44.9771 87.9785 45.2187 87.9958 45.2187H92.2355V35.1223C92.2355 34.6045 92.9104 32.9994 93.2738 32.5334C94.3468 31.17 96.8041 30.9974 97.5828 32.7233C98.3616 34.4492 97.9462 33.8106 97.9462 33.9142V45.2187H102.273ZM121.481 28.1324C119.439 27.9426 117.934 28.3223 116.636 29.9446L115.424 31.9294V28.4776H111.617V45.2187H115.944V37.0208C115.944 36.6411 116.307 35.0187 116.463 34.6045C117.241 32.3263 119.37 31.7568 121.481 32.6197V28.1324ZM136.364 45.2187C136.329 44.1487 136.398 43.0786 136.364 42.0258C136.294 39.4025 136.502 33.9487 135.741 31.7741C134.079 27.0279 126.829 27.5456 123.194 29.4441V32.9822C123.99 32.7578 124.648 32.1537 125.444 31.8603C128.403 30.7558 132.314 30.8076 132.193 34.8807H127.607C127.054 34.8807 125.167 35.4157 124.579 35.6573C120.08 37.4695 120.097 43.6482 124.821 45.236C127.694 46.2025 130.601 45.2187 132.349 42.8197L132.522 45.236H136.329L136.364 45.2187ZM163.879 38.1426V35.64C163.879 32.24 161.3 28.702 157.839 28.2015C152.388 27.4248 148.581 30.3416 148.166 35.8299C147.474 44.839 155.382 47.4451 162.685 44.3558V40.904C161.387 41.2319 160.279 41.9913 158.93 42.2502C155.832 42.8197 152.492 41.8015 152.475 38.1426H163.896H163.879ZM175.992 28.6502C172.739 27.9426 167.53 27.3903 165.367 30.5487C164.329 32.0675 164.363 34.639 165.471 36.1233C166.942 38.1081 171.285 37.9873 171.995 39.6268C172.601 41.0076 171.666 41.9568 170.351 42.2675C169.036 42.5781 166.786 41.905 165.09 41.4218L164.761 44.8563C168.378 46.0299 175.058 46.2715 176.512 41.8705C177.463 39.0055 176.287 36.7791 173.622 35.5883C172.289 34.9842 169.105 34.6563 169.226 32.8959C169.382 30.4796 174.193 31.4116 175.646 31.9466L175.992 28.6675V28.6502ZM109.195 28.4776H104.868V45.2187H109.195V28.4776Z" fill="#141414"/>
<path d="M44.8195 4.14258V63.8583H26.3895C23.9495 59.9233 22.2536 55.1944 21.5095 50.6035C18.8618 34.3629 24.3648 19.0888 36.4265 8.11212C36.9976 7.59435 41.1162 4.14258 41.445 4.14258H44.8195ZM32.7059 38.4878C32.9828 34.9497 32.2906 31.2218 30.5428 28.1324C28.7949 25.0431 29.5564 26.2685 29.2449 26.5791C32.4809 35.2603 30.4389 44.7527 24.2264 51.5182C24.8667 51.9152 25.1609 51.2248 25.3858 51.0867C25.6108 50.9487 25.9569 50.8279 26.303 50.569C27.3759 50.103 28.4661 49.2746 29.3314 48.4979C37.8628 40.9558 39.9222 27.5974 34.4537 17.6563C28.9853 7.71517 33.8134 16.4309 33.3808 16.0512C35.1459 23.3172 35.6651 31.4807 32.6886 38.4878H32.7059Z" fill="#141414"/>
<path d="M22.6689 4.1417C14.3797 13.8067 10.1918 25.9742 10.9014 38.7458C11.4032 47.8585 16.214 57.1092 22.1497 63.8574C16.1621 63.961 10.1399 63.7711 4.15234 63.8574V4.1417C10.3303 4.12444 16.4909 4.15896 22.6689 4.1417Z" fill="#141414"/>
<path d="M29.2448 4.14187C16.2833 16.8962 10.3995 36.882 18.308 53.9683C19.0694 55.6251 20.0212 56.9886 20.9384 58.5073C21.8555 60.0261 21.8036 60.1987 22.2535 60.9063C22.7035 61.6139 24.0187 63.081 24.2263 63.5987C24.434 64.1165 24.1571 63.8231 23.9668 63.8576C23.4303 63.9266 22.7208 63.8576 22.1497 63.8576C16.214 57.1266 11.4032 47.8759 10.9014 38.7459C10.1919 25.9744 14.397 13.7896 22.6689 4.14187C24.8666 4.14187 27.0298 4.05557 29.2448 4.14187Z" fill="#141414"/>
<path d="M29.2459 4.14122C30.5438 4.193 31.8417 4.1067 33.1396 4.14122C33.4857 4.50366 32.9492 4.50366 32.707 4.72802C20.0396 16.8092 14.277 31.5829 17.8764 49.2214C18.534 52.4488 19.7627 55.4519 20.9395 58.5067C20.0223 56.9879 19.0705 55.6072 18.3091 53.9676C10.4006 36.8813 16.2844 16.9128 29.2459 4.14122Z" fill="#141414"/>
<path d="M200.047 39.3512V22.4375H204.373V45.2192H198.662L190.01 28.3055V45.2192H185.684V22.4375H191.135L200.047 39.3512Z" fill="#FCFCFD"/>
<path d="M216.746 22.4357C217.957 22.5392 219.844 23.0225 220.865 23.6783C224.153 25.7839 224.014 31.2895 220.328 32.9118L218.736 33.4813C225.226 34.0509 225.676 42.5423 219.775 44.6133C219.255 44.7859 217.559 45.2174 217.092 45.2174H207.834V22.6945C207.834 22.6773 208.076 22.4357 208.094 22.4357C210.81 22.4357 214.098 22.2113 216.746 22.4357ZM212.506 31.5829H216.227C216.85 31.5829 218.286 30.5473 218.477 29.857C219.619 25.991 215.068 25.9392 212.506 26.06V31.5829ZM215.535 35.0346C214.566 34.9483 213.493 35.1037 212.506 35.0346V41.593H215.881C216.106 41.593 217.456 41.1615 217.733 41.0235C219.342 40.2641 219.584 38.4864 218.996 36.9331C218.511 35.656 216.798 35.1555 215.535 35.0346Z" fill="#FCFCFD"/>
<path d="M226.351 45.2178V22.4361C228.514 22.5224 230.695 22.3326 232.841 22.4361C241.753 22.8331 247.048 26.9062 245.525 36.4849C243.985 46.1153 233.896 45.3559 226.334 45.2178H226.351ZM230.851 41.5935H234.744C235.246 41.5935 236.942 40.7996 237.444 40.4889C243.605 36.761 240.974 26.0605 234.052 26.0605H231.11C231.093 26.0605 230.851 26.3021 230.851 26.3194V41.5935Z" fill="#FCFCFD"/>
<path d="M102.273 45.2187H97.9462V33.9141C97.9462 33.8105 97.6521 32.8958 97.5828 32.7232C96.8041 30.9973 94.3468 31.1699 93.2739 32.5334C92.9104 32.9821 92.2355 34.5872 92.2355 35.1222V45.2187H87.9958C87.9785 45.2187 87.7362 44.977 87.7362 44.9598V33.3963C87.7362 32.9303 87.0094 31.8948 86.5075 31.6877C84.7424 30.9456 83.2023 31.9121 82.562 33.5862C82.3543 34.1385 82.0255 35.4501 82.0255 35.9852V45.2187H77.6992V28.4776H81.8525V30.7212L83.1503 29.3405C85.798 27.2177 90.2108 27.7354 91.8029 30.8938C93.7238 27.4593 99.919 26.8897 101.667 30.7212C101.84 31.1009 102.273 32.5334 102.273 32.8786V45.2187Z" fill="#FCFCFD"/>
<path d="M75.4511 22.4375V26.0619H66.6255V31.5847H74.5859V35.2091H66.6255V41.5949H75.4511V45.2192H61.9531V22.4375H75.4511Z" fill="#FCFCFD"/>
<path d="M163.88 38.1425H152.459C152.459 41.7842 155.799 42.8197 158.914 42.2502C162.029 41.6806 161.388 41.2491 162.669 40.904V44.3557C155.366 47.4451 147.458 44.8562 148.15 35.8298C148.565 30.3588 152.372 27.4248 157.823 28.2014C161.284 28.7019 163.863 32.2227 163.863 35.64V38.1425H163.88ZM159.727 35.2085C159.727 29.7547 152.684 30.0826 152.286 35.2085H159.727Z" fill="#FCFCFD"/>
<path d="M136.364 45.2171H132.557L132.384 42.8008C130.636 45.1998 127.729 46.1836 124.856 45.2171C120.132 43.6293 120.114 37.4506 124.614 35.6384C125.202 35.3968 127.088 34.8618 127.642 34.8618H132.228C132.349 30.8059 128.438 30.7541 125.479 31.8414C122.52 32.9288 124.025 32.7389 123.229 32.9633V29.4252C126.863 27.5267 134.114 27.009 135.776 31.7552C136.537 33.947 136.312 39.4008 136.399 42.0069C136.433 43.077 136.364 44.147 136.399 45.1998L136.364 45.2171ZM132.211 37.4506H128.836C128.646 37.4506 127.365 37.8475 127.106 37.9684C125.15 38.7968 124.735 41.4546 126.846 42.1968C130.013 43.3186 132.522 40.5399 132.211 37.4506Z" fill="#FCFCFD"/>
<path d="M175.994 28.65L175.648 31.9291C174.194 31.3941 169.384 30.4621 169.228 32.8784C169.124 34.656 172.291 34.984 173.623 35.5708C176.288 36.7616 177.465 38.988 176.513 41.853C175.06 46.2713 168.363 46.0124 164.763 44.8388L165.092 41.4043C166.788 41.8875 168.553 42.6642 170.353 42.25C172.152 41.8357 172.602 40.9901 171.997 39.6093C171.287 37.987 166.944 38.1078 165.473 36.1058C164.365 34.6215 164.331 32.0672 165.369 30.5312C167.532 27.3728 172.741 27.9078 175.994 28.6327V28.65Z" fill="#FCFCFD"/>
<path d="M143.98 23.8164V28.4763H147.96V31.4966C147.96 31.5139 147.717 31.7555 147.7 31.7555H143.98V39.9535C143.98 40.1778 144.36 41.2306 144.533 41.4722C145.243 42.5078 147.112 42.1626 148.133 41.7656V45.2174C145.468 45.8387 142.162 46.0113 140.484 43.4398C140.224 43.0428 139.653 41.7484 139.653 41.3342V31.7555H136.625C136.608 31.7555 136.365 31.5139 136.365 31.4966V28.4763H139.653V25.0245L143.98 23.8164Z" fill="#FCFCFD"/>
<path d="M121.483 28.1326V32.6199C119.372 31.757 117.226 32.3093 116.465 34.6047C116.326 35.0362 115.945 36.6585 115.945 37.0209V45.2189H111.619V28.4778H115.426V31.9296L116.638 29.9448C117.936 28.3225 119.441 27.9428 121.483 28.1326Z" fill="#FCFCFD"/>
<path d="M109.195 28.4766H104.869V45.2177H109.195V28.4766Z" fill="#FCFCFD"/>
<path d="M109.195 21.4004H104.869V25.5425H109.195V21.4004Z" fill="#FCFCFD"/>
<path d="M32.707 38.4873C35.6835 31.4802 35.1643 23.3168 33.3992 16.0508C33.8318 16.4477 34.1779 17.1381 34.4721 17.6559C39.9405 27.597 37.8812 40.9553 29.3498 48.4975C20.8183 56.0396 27.3943 50.1026 26.3214 50.5685C29.7305 47.9452 32.3955 42.7675 32.7243 38.4873H32.707Z" fill="#FCFCFD"/>
<path d="M32.7061 38.4864C32.3773 42.7666 29.7123 47.9442 26.3032 50.5676C25.9571 50.8437 25.7148 50.8955 25.386 51.0853C25.0572 51.2752 24.8669 51.9138 24.2266 51.5168C30.4391 44.7513 32.4811 35.259 29.2451 26.5777C29.5739 26.2671 30.4391 27.9239 30.5429 28.131C32.2908 31.2376 32.9657 34.9656 32.7061 38.4864Z" fill="#141414"/>
<path d="M215.536 35.0347C216.782 35.1555 218.513 35.656 218.997 36.9332C219.586 38.4865 219.343 40.2641 217.734 41.0235C217.457 41.1616 216.09 41.5931 215.882 41.5931H212.508V35.0347C213.494 35.1037 214.567 34.9484 215.536 35.0347Z" fill="#141414"/>
<path d="M212.508 31.5838V26.061C215.069 25.9402 219.638 26.0092 218.478 29.8579C218.27 30.531 216.851 31.5838 216.228 31.5838H212.508Z" fill="#141414"/>
<path d="M230.852 41.5935V26.3194C230.852 26.3022 231.094 26.0605 231.111 26.0605H234.053C240.975 26.0605 243.605 36.7611 237.445 40.489C236.943 40.7996 235.247 41.5935 234.745 41.5935H230.852Z" fill="#141414"/>
<path d="M159.726 35.2086H152.285C152.683 30.0827 159.726 29.7548 159.726 35.2086Z" fill="#141414"/>
<path d="M132.212 37.4516C132.524 40.5409 130.014 43.3196 126.848 42.1978C123.681 41.076 125.152 38.7978 127.107 37.9694C129.063 37.1409 128.647 37.4516 128.838 37.4516H132.212Z" fill="#141414"/>
</g>
<defs>
<clipPath id="clip0_370_1439">
<rect width="262" height="68" fill="white"/>
</clipPath>
</defs>
</svg>
