<svg width="211" height="34" viewBox="0 0 211 34" fill="none" xmlns="http://www.w3.org/2000/svg">
<g clip-path="url(#clip0_368_1166)">
<path d="M0.000943858 16.4661C0.109796 13.2231 1.05318 9.99876 2.84016 7.30404C8.78165 -1.6629 21.8892 -2.49919 28.9827 5.49206C29.1188 5.65003 29.8898 6.55137 29.8717 6.68146L26.5336 9.33902C24.6377 6.84872 22.0162 4.981 18.9502 4.39559C12.7185 3.1969 6.72254 6.9881 5.02627 13.2138C2.59524 22.0971 9.08099 30.8968 18.2699 29.6981C27.4588 28.4994 24.4926 27.3286 26.5426 24.6432L29.8717 27.2729C29.917 27.3565 29.7991 27.4773 29.7537 27.5516C27.9305 30.3579 23.8395 32.746 20.6828 33.5079C10.1514 36.0447 0.390996 28.5831 0.000943858 17.5161C-0.00812712 17.1816 -0.00812712 16.8006 0.000943858 16.4661Z" fill="#141414"/>
<path d="M115.211 0.492188H128.21C133.326 0.743076 137.698 4.18117 137.38 9.79364C137.199 12.9716 135.031 15.3968 132.11 16.2424L133.661 16.707C137.807 18.4075 139.467 22.9606 138.179 27.235C136.954 31.3143 133.09 33.247 129.153 33.4701H115.22V0.492188H115.211ZM119.592 14.5977H127.638C130.904 14.3933 133.253 12.4605 132.836 8.883C132.482 5.86305 130.115 4.72012 127.402 4.55286H119.583V14.5884L119.592 14.5977ZM119.638 29.4187H128.065C131.004 29.2514 133.698 28.0063 134.051 24.7075C134.478 20.7584 131.775 18.7234 128.201 18.519H119.638V29.4187Z" fill="#141414"/>
<path d="M63.6519 23.0063H45.9182C46.2447 26.2678 48.0589 29.3343 51.3789 30.0126C54.6898 30.6816 58.1186 29.2878 59.316 25.924H63.4705C62.8628 28.6652 61.1665 31.0812 58.7899 32.4843C55.3883 34.4914 50.6079 34.4635 47.2062 32.4843C39.9041 28.2471 39.5413 16.3531 46.3354 11.4561C50.6351 8.35256 57.4202 8.65921 60.9306 12.8778C64.4411 17.0965 63.8152 19.4009 63.661 23.0156L63.6519 23.0063ZM59.316 19.5217C59.0711 16.9664 57.8012 14.4854 55.3248 13.5933C53.5559 12.9522 51.2065 13.0823 49.5284 13.965C47.5056 15.0336 46.3989 17.2823 46.0633 19.5217H59.316Z" fill="#141414"/>
<path d="M161.446 33.4806H157.291V29.5128L156.674 30.535C152.366 36.5191 140.519 34.4563 141.435 26.0097C142.215 18.7711 151.322 19.626 156.475 19.0499C156.602 19.0313 157.028 19.0127 157.055 18.9198C157.137 17.2007 156.729 15.5374 155.404 14.4131C154.08 13.2887 151.032 13.0378 149.245 13.6418C147.694 14.1622 146.515 15.3888 146.279 17.0799H141.843C142.143 13.2051 145.054 10.5754 148.601 9.72984C154.534 8.32672 161.001 11.04 161.446 17.8605V33.4713V33.4806ZM157.055 22.4415L150.361 23.0176C147.903 23.1291 144.891 24.9039 146.007 27.8588C147.123 30.8137 150.923 30.5536 153.155 29.5593C154.815 28.8252 157.055 26.7716 157.055 24.7645V22.4508V22.4415Z" fill="#141414"/>
<path d="M86.7456 33.4792H82.5911V29.5579C82.4006 29.7902 82.2827 30.0875 82.1194 30.3384C79.4435 34.3805 72.858 35.1332 69.1842 32.1411C65.7554 29.3442 65.8461 23.741 69.5833 21.2693C72.7672 19.16 78.0466 19.4666 81.7838 19.0392C81.9108 19.0206 82.3371 19.002 82.3643 18.9091C82.5185 16.456 81.5298 14.3095 79.1441 13.5754C77.8107 13.1665 75.9149 13.1851 74.5905 13.6218C73.0212 14.1422 71.842 15.3781 71.5971 17.0785H67.1614C67.2884 15.8427 67.624 14.6997 68.259 13.6404C70.5993 9.75631 75.933 8.72488 80.024 9.74702C83.7976 10.6948 86.5098 13.7334 86.7547 17.7661V33.4699L86.7456 33.4792ZM82.3553 22.4401L75.6609 23.0162C73.2662 23.1556 70.3816 24.726 71.2433 27.6437C72.1504 30.7287 76.5136 30.5614 78.8176 29.3999C80.2689 28.6658 82.3643 26.6402 82.3643 24.8561V22.4401H82.3553Z" fill="#141414"/>
<path d="M194.382 0.492188V21.5296L205.376 9.86797H210.809L200.831 20.1172L211 33.4793H205.557L197.856 23.2487L194.382 26.7147V33.4793H189.955V0.492188H194.382Z" fill="#141414"/>
<path d="M186.082 33.4802H181.691V19.6906C181.583 11.6622 170.171 11.402 169.745 19.4026V33.4802H165.318V19.6906C165.346 12.4428 170.961 8.55864 177.7 9.54361C182.562 10.2498 185.837 13.9388 186.082 18.9751V33.4802Z" fill="#141414"/>
<path d="M37.9431 0.492188H33.5527V33.4701H37.9431V0.492188Z" fill="#141414"/>
<path d="M103.772 9.86728V13.8815C102.52 13.928 101.223 13.8257 99.9709 13.8815C97.1407 14.0209 95.3265 15.6098 95.0453 18.5369V33.4786H90.6641V18.1559C90.8999 14.6806 92.8683 11.7815 96.0613 10.5456C98.5649 9.57922 101.15 9.92303 103.772 9.86728Z" fill="#141414"/>
<path d="M105.259 27.7092C109.505 27.3747 109.632 34.1766 105.105 33.7677C101.74 33.4611 101.613 27.9973 105.259 27.7092Z" fill="#141414"/>
</g>
<defs>
<clipPath id="clip0_368_1166">
<rect width="211" height="34" fill="white"/>
</clipPath>
</defs>
</svg>
