<svg width="182" height="65" viewBox="0 0 182 65" fill="none" xmlns="http://www.w3.org/2000/svg">
<g clip-path="url(#clip0_368_1134)">
<path d="M164.543 0C165.639 0.41691 166.994 0.0947522 168.164 0.189504C174.869 0.701166 179.4 5.41982 181.053 11.863C182.706 18.3061 181.554 15.1035 182 16.6764V20.277H154.7C154.83 27.3076 158.08 33.6749 165.564 34.3003C171.043 34.7551 175.983 31.3819 176.986 25.7726H181.443C179.864 34.6603 172.844 38.8863 164.264 38.2799C146.473 37.0292 145.266 5.66618 161.441 0.701166C162.37 0.41691 163.336 0.41691 164.19 0H164.561L164.543 0ZM177.357 16.2974C176.911 8.6793 172.621 3.60058 164.821 4.1691C158.73 4.60496 155.276 10.5743 154.886 16.2974H177.357Z" fill="#141414"/>
<path d="M31.1992 0.000486542C36.7149 0.000486542 42.8249 0.853256 44.812 7.05005C46.7992 13.2468 45.4992 9.68416 45.4992 10.139V37.1433H41.2277V10.897C41.2277 3.63897 32.0163 2.35034 26.7977 4.51069C23.6777 5.79932 20.8363 8.41448 18.1992 10.518V37.1433H13.9277V1.13751H18.1992V6.44363C21.0034 4.09378 23.882 1.83868 27.4477 0.815355C28.2834 0.569 30.0663 0.0762883 30.8277 0.000486542C31.5892 -0.0753152 31.0692 0.000486542 31.1992 0.000486542Z" fill="#141414"/>
<path d="M142.072 0C142.871 0.322157 144.282 0.322157 145.043 0H145.972C146.325 0.189504 146.325 0.265306 146.362 0.644315C146.455 1.81924 146.269 3.16472 146.362 4.3586C143.39 3.97959 140.382 3.92274 137.912 5.87464C135.442 7.82653 134.161 11.844 133.901 15.4257V37.1239H129.629L129.443 1.11808H133.715C133.919 2.72886 133.808 4.33965 133.901 5.95044C133.901 6.15889 133.771 6.4621 134.086 6.4242C134.922 3.90379 136.798 1.81924 139.156 0.701166L141.515 0H142.072Z" fill="#141414"/>
<path d="M4.08571 1.13672H0V37.1425H4.08571V1.13672Z" fill="#141414"/>
<path d="M106.971 65.0001C103.981 64.0715 103.369 61.7027 106.229 59.9782C104.316 58.8981 104.111 58.2158 105.857 56.7567C103.629 55.108 104.279 50.9389 107.12 50.4462C108.606 50.1809 109.534 50.7873 110.574 50.7683C111.354 50.7683 112.357 50.2188 113.193 50.2188C114.029 50.2188 113.564 50.9768 113.453 51.1473C113.341 51.3179 111.763 51.5453 111.429 51.5453C112.469 54.4068 111.521 57.382 108.179 57.4199C107.491 57.4199 106.247 56.7946 105.95 57.78C105.653 58.7654 106.489 58.8412 107.343 59.0307C108.977 59.3908 112.877 59.3339 112.524 62.0059C112.283 63.8252 110.259 64.4884 108.847 65.0001H106.99H106.971ZM107.287 51.3937C105.3 51.8106 105.059 55.1269 106.711 56.0555C108.364 56.9841 110.221 56.4155 110.593 54.7669C111.187 52.2085 109.757 50.882 107.287 51.3937ZM107.491 60.1109C105.857 60.3762 104.241 63.0861 106.897 63.8631C110.184 64.8106 113.323 61.5701 109.999 60.5088C109.553 60.3762 107.881 60.054 107.491 60.1109Z" fill="#141414"/>
<path d="M0 59.1256C0.724286 58.8034 1.41143 59.6562 2.22857 59.8078C3.56571 60.0541 5.46 59.1824 4.97714 57.5716C4.49429 55.9609 -0.13 56.0367 0.39 52.6256C0.91 49.2145 1.56 50.6547 2.56286 50.4842C3.62143 50.2947 6.76 50.2378 5.47857 51.9623C4.38286 51.3748 2.41429 50.8821 1.70857 52.2655C0.39 54.8238 5.49714 54.9754 6.05429 57.06C7.02 60.6416 2.41429 61.7407 0.0185714 60.092V59.1445L0 59.1256Z" fill="#141414"/>
<path d="M145.044 0C144.282 0.322157 142.871 0.322157 142.072 0H145.044Z" fill="#141414"/>
<path d="M102.663 0.245138C107.045 -0.209672 111.558 0.529395 115.05 3.40986C126.23 12.6956 122.924 36.9521 106.878 38.2597C83.4597 40.1737 83.1811 2.25388 102.663 0.226188V0.245138ZM103.22 4.22473C89.4954 5.89237 89.6439 35.5877 106.135 34.2991C121.178 33.1241 120.881 2.06438 103.22 4.22473Z" fill="#141414"/>
<path d="M81.7149 12.3171H77.072C76.942 8.37543 74.7692 5.32441 70.9435 4.45269C53.1892 0.340443 53.2077 32.8594 66.412 34.2807C71.6677 34.8492 76.7192 31.6087 77.072 25.9614H81.7149C80.6749 34.7734 74.7506 38.9804 66.2077 38.2792C48.2492 36.7821 47.822 3.73257 64.7777 0.435195C73.042 -1.17559 81.3435 3.08826 81.7149 12.3171Z" fill="#141414"/>
<path d="M11.3282 59.1253L14.1325 50.427C14.5597 50.3702 15.1725 50.2564 15.3768 50.7113L17.7354 59.1063L20.4468 50.4081H21.5425L18.1997 60.5276C17.9397 60.6792 17.3082 60.6981 17.0668 60.5276C16.7139 60.2812 15.1354 53.2696 14.7454 52.2841L11.9597 60.4328C11.6997 60.755 10.9754 60.6034 10.5668 60.6034L7.9668 50.3891C8.37537 50.3891 8.89537 50.2564 9.04394 50.7113L11.3097 59.1063L11.3282 59.1253Z" fill="#141414"/>
<path d="M49.9572 44.9135V51.7356C54.433 48.1919 57.683 52.1905 56.5872 57.0797C55.9372 59.9412 53.9687 61.0403 51.183 60.8129C50.7558 60.775 50.2358 60.4718 49.8458 60.4718C49.4558 60.4718 48.9915 61.0782 48.7315 60.6423L48.6387 45.1977L49.9387 44.8945L49.9572 44.9135ZM52.5201 51.3945C51.6287 51.4893 50.0687 52.38 49.9572 53.3275C49.8458 54.275 49.8644 58.8231 49.9944 59.1832C50.1244 59.5432 51.6844 59.8843 52.1115 59.8843C56.9587 59.9791 56.6987 50.9587 52.5387 51.3756L52.5201 51.3945Z" fill="#141414"/>
<path d="M66.8571 59.5045C67.3028 60.8121 65.3714 61.1532 64.6285 60.3573C64.3128 60.0352 64.2385 59.5614 64.2571 59.1255C62.9756 60.6984 60.1342 61.7596 59.0199 59.4477C57.2742 55.7903 62.0285 55.5818 64.2385 54.9375C64.9814 50.522 62.0842 50.6168 59.3356 52.7013C58.5185 51.7538 59.9299 51.0337 60.7285 50.7115C62.8828 49.8398 65.3528 50.2757 65.5385 53.0045L65.2228 59.0118C65.5199 60.3194 66.6714 59.334 66.8571 59.5235V59.5045ZM64.2571 55.904C63.1242 56.283 59.9114 56.3777 59.7999 57.9127C59.6514 60.2436 62.2328 60.0352 63.5514 58.7465C64.8699 57.4579 64.2756 57.1168 64.2571 55.904Z" fill="#141414"/>
<path d="M127.957 55.3364C127.753 58.0652 128.885 60.0171 131.764 59.695C134.643 59.3728 133.268 59.0696 134.085 58.7475C134.215 59.9982 133.77 60.1877 132.748 60.5098C125.283 62.8786 125.097 51.1483 130.111 50.4282C132.915 50.0303 134.828 51.4705 134.475 54.5026C134.123 57.5346 134.475 54.9384 134.29 55.0711C133.918 55.3364 128.83 55.2416 127.957 55.3364ZM133.343 54.1993C133.677 49.9545 128.273 50.6367 127.957 54.2941C127.975 54.6542 132.804 54.1425 133.343 54.1993Z" fill="#141414"/>
<path d="M173.81 55.1266C173.494 55.3351 168.182 55.2214 167.328 55.3351C167.235 58.1019 168.294 60.0917 171.302 59.6747C172.157 59.561 172.695 59.0115 173.457 58.7462C173.94 60.357 171.562 60.8497 170.392 60.8497C166.548 60.8497 165.508 56.5669 166.455 53.4021C167.402 50.2374 173.977 49.1762 174.032 54.1033C174.032 54.3118 173.921 55.0508 173.81 55.1266ZM172.9 54.1981C173.067 49.9911 167.477 50.6164 167.514 54.3876L172.9 54.1981Z" fill="#141414"/>
<path d="M95.4563 60.6424H94.1562V50.7124L95.4748 50.4092L95.5677 51.9252C96.812 50.4092 99.8577 49.6133 101.121 51.3757C102.383 53.138 101.548 55.8669 101.585 57.5346C101.622 59.2022 102.588 61.0593 100.471 60.6614V52.7969C100.471 52.02 99.2077 51.4136 98.5205 51.4136C97.8334 51.4136 95.4563 52.6453 95.4563 53.176V60.6614V60.6424Z" fill="#141414"/>
<path d="M75.5858 52.7773C75.1772 50.4464 71.2029 51.6403 70.4786 53.2511C69.9772 54.3881 70.8501 60.3385 70.5715 60.6417H69.2715L69.2901 50.617L70.3858 50.4085C70.5158 50.5411 70.1072 52.1519 70.6643 51.9245C71.2215 51.6971 71.9458 50.7307 72.8001 50.5032C73.7843 50.2379 75.1772 50.3516 75.9386 51.0907C76.1243 51.2802 76.7001 52.2088 76.7001 52.3983V60.6417H75.5858V52.7773Z" fill="#141414"/>
<path d="M33.2233 50.8071C33.3162 50.9398 33.0933 51.8873 33.0562 51.9252C32.8891 52.0389 30.4562 50.5039 29.2491 51.9252C27.4848 54.0477 31.2733 54.9762 32.3691 55.7342C34.7091 57.3829 33.2976 60.3961 30.8648 60.7751C29.6391 60.9646 26.9833 60.7182 27.4662 58.9369C28.0976 58.9369 28.4876 59.4296 29.1005 59.638C30.7719 60.2066 32.8705 59.5243 32.2205 57.4019C31.5705 55.2794 28.9519 55.7721 28.1348 54.5593C27.3176 53.3465 28.1348 50.7124 29.9919 50.4092C30.5305 50.3144 32.9448 50.4092 33.2233 50.7882V50.8071Z" fill="#141414"/>
<path d="M41.2093 50.8071C41.3021 50.9398 41.0793 51.8873 41.0421 51.9252C40.9307 52.02 39.9464 51.4704 39.6121 51.3946C38.0893 51.1293 36.4178 51.7736 37.0493 53.6307C37.3464 54.5214 39.5936 55.1847 40.3736 55.7342C42.7693 57.4398 41.3207 60.5287 38.7207 60.794C36.1207 61.0593 35.4707 60.6424 35.4707 59.5812C35.4707 58.52 36.3807 59.3538 36.975 59.5812C38.3493 60.0928 40.355 59.8465 40.4478 58.0462C40.5407 56.2838 37.0121 55.9806 36.1021 54.4077C35.1921 52.8348 36.1578 50.7124 37.9964 50.4092C38.535 50.3144 40.9493 50.4092 41.2278 50.7882L41.2093 50.8071Z" fill="#141414"/>
<path d="M124.428 50.7875C124.484 50.8633 124.15 51.6592 124.242 51.9246C122.924 51.1476 119.822 50.9391 119.971 53.1374C120.082 54.9187 124.317 55.0703 124.614 57.3065C124.911 59.5426 122.738 61.0776 120.472 60.7744C119.284 60.6228 118.114 60.3385 118.652 58.9362C119.377 59.0499 119.971 59.6563 120.677 59.8079C122.218 60.1301 123.982 59.2205 123.388 57.4202C122.905 55.961 118.894 55.942 118.82 53.1753C118.745 50.4085 119.86 50.6359 121.178 50.4464C121.68 50.3706 124.187 50.4843 124.41 50.8065L124.428 50.7875Z" fill="#141414"/>
<path d="M175.872 58.9362C177.135 59.7322 179.605 60.5281 180.496 58.8225C181.796 56.3211 176.763 56.0368 176.151 54.0281C175.538 52.0193 176.986 50.5222 178.936 50.4085C180.886 50.2948 182.316 50.3706 181.165 51.9246C179.865 51.0339 177.023 51.0149 177.153 53.1563C177.283 55.2977 182.168 54.9187 181.815 58.273C181.666 59.7511 180.255 60.6607 178.918 60.8123C177.803 60.926 174.943 60.6039 175.872 58.9362Z" fill="#141414"/>
<path d="M144.486 50.4082L147.179 59.3149L150.411 50.5219L151.543 50.4082C150.949 51.5642 148.238 60.5277 147.699 60.6414C147.161 60.7551 146.399 60.6414 146.362 60.6225L143.391 50.863V50.4082H144.486Z" fill="#141414"/>
<path d="M164.729 58.9368C164.784 61.0782 161.423 61.0972 160.011 60.4339C156.056 58.5578 156.873 48.8173 163.243 50.5039C164.19 50.7502 165.1 51.0345 164.246 52.1147C160.977 50.2196 158.637 52.2094 158.767 55.81C158.916 59.7327 161.534 60.5666 164.71 58.9368H164.729Z" fill="#141414"/>
<path d="M81.342 44.9121V60.641H80.042L80.0234 45.2153L81.342 44.9121Z" fill="#141414"/>
<path d="M137.057 50.5985C137.094 50.5416 138.097 50.3332 138.171 50.409C138.246 50.4848 138.227 51.9818 138.357 52.304C138.803 52.0955 138.914 51.6028 139.286 51.2807C140.27 50.4279 142.22 49.5941 141.867 51.7355C136.927 51.4323 138.394 57.4396 138.339 60.6422H137.039C137.299 59.2967 136.704 51.1291 137.039 50.5985H137.057Z" fill="#141414"/>
<path d="M87.1006 50.4082C87.1934 50.7304 86.9706 50.7872 86.822 50.9767C85.7634 52.379 84.1663 53.7245 83.0334 55.07L87.472 60.3572C87.6391 60.7362 86.7106 60.8688 86.4691 60.8309C86.2277 60.793 84.9277 59.296 84.5934 58.9359C84.2591 58.5758 81.7148 55.5059 81.7148 55.2406L85.7077 50.5788L87.1191 50.4082H87.1006Z" fill="#141414"/>
<path d="M23.771 50.5971C23.8081 50.5402 24.9781 50.3128 25.071 50.4076C25.0153 53.0985 24.7924 55.7706 24.8853 58.4615C24.9781 61.1525 25.7581 60.8872 23.771 60.6408C24.031 59.2953 23.4367 51.1466 23.771 50.5971Z" fill="#141414"/>
<path d="M90.8135 50.4078V60.641H89.6992V50.5973C89.6992 50.5404 90.6464 50.3699 90.8135 50.4078Z" fill="#141414"/>
<path d="M154.886 50.4082V60.6414H153.771V50.5977C153.771 50.5409 154.756 50.4461 154.886 50.4082Z" fill="#141414"/>
<path d="M24.0879 46.2775C25.4808 45.8606 25.6108 47.9641 24.2365 47.7556C23.4193 47.6419 23.3451 46.5049 24.0879 46.2775Z" fill="#141414"/>
<path d="M153.808 46.2771C155.071 45.4622 155.814 48.0015 154.254 47.7741C153.474 47.6604 153.455 46.5045 153.808 46.2771Z" fill="#141414"/>
<path d="M89.8115 46.2589C91.5015 45.6714 91.2601 48.0781 90.0158 47.718C89.4401 47.5475 89.273 46.4484 89.8115 46.2589Z" fill="#141414"/>
</g>
<defs>
<clipPath id="clip0_368_1134">
<rect width="182" height="65" fill="white"/>
</clipPath>
</defs>
</svg>
