<svg width="99" height="99" viewBox="0 0 99 99" fill="none" xmlns="http://www.w3.org/2000/svg">
<path d="M49.9878 98.0273C22.9614 98.0273 0.975586 76.04 0.975586 49.0128C0.975586 21.9856 22.9614 0.00038147 49.9878 0.00038147C77.015 0.00038147 99.0002 21.9856 99.0002 49.0128C99.0002 76.04 77.015 98.0273 49.9878 98.0273ZM49.9878 1.15349C23.5986 1.15349 2.12867 22.6238 2.12867 49.0128C2.12867 75.4039 23.5986 96.8743 49.9878 96.8743C76.3768 96.8743 97.8471 75.4039 97.8471 49.0128C97.8471 22.6238 76.3768 1.15349 49.9878 1.15349Z" fill="#302E2E"/>
<path d="M50.5642 97.4512H49.4111V0.577347H50.5642V97.4512Z" fill="#302E2E"/>
<path d="M49.9885 98.0273C35.3954 98.0273 23.5229 76.0422 23.5229 49.0149C23.5229 21.9898 35.3954 0.00038147 49.9885 0.00038147C64.5829 0.00038147 76.4541 21.9898 76.4541 49.0149C76.4541 76.0422 64.5829 98.0273 49.9885 98.0273ZM49.9885 1.15349C36.0303 1.15349 24.676 22.6238 24.676 49.0149C24.676 75.4039 36.0303 96.8743 49.9885 96.8743C63.9468 96.8743 75.301 75.4039 75.301 49.0149C75.301 22.6238 63.9468 1.15349 49.9885 1.15349Z" fill="#302E2E"/>
<path d="M95.5415 33.3643H4.33643V32.2112H95.5415V33.3643Z" fill="#302E2E"/>
<path d="M95.5415 65.8125H4.33643V64.6594H95.5415V65.8125Z" fill="#302E2E"/>
</svg>
