<svg width="95" height="104" viewBox="0 0 95 104" fill="none" xmlns="http://www.w3.org/2000/svg">
<g clip-path="url(#clip0_368_1177)">
<path d="M78.8832 103.772C78.0108 103.668 76.6728 103.343 75.9892 103.069L75.4272 102.844V99.7157C75.4523 99.7157 75.7166 99.8364 76.0101 99.9861C76.7316 100.344 77.9143 100.722 78.7909 100.872C80.4225 101.147 81.643 100.91 82.1673 100.215C82.3854 99.9237 82.4274 99.333 82.2512 98.9669C82.0541 98.5509 81.5969 98.2722 80.0157 97.59C77.4152 96.4668 76.8826 96.1839 76.2828 95.589C75.4523 94.7695 75.1461 94.0249 75.1461 92.8185C75.1419 90.0188 77.6585 88.2966 81.2572 88.6335C82.5532 88.7542 83.8534 89.037 84.3945 89.3157L84.6294 89.4364L84.5287 92.4357L83.757 92.1071C82.6958 91.6578 81.9786 91.4914 80.8797 91.4457C80.0912 91.4124 79.8143 91.4332 79.4578 91.5455C78.4554 91.8575 78.145 92.6895 78.7868 93.3385C79.181 93.7378 79.4872 93.9042 81.3033 94.6905C83.2201 95.5225 83.866 95.8761 84.5077 96.4585C85.3382 97.2114 85.6779 98.0434 85.6779 99.3164C85.6779 100.589 85.2417 101.621 84.3148 102.449C83.7653 102.936 82.5951 103.51 81.8192 103.668C81.0433 103.826 79.7053 103.876 78.8874 103.776L78.8832 103.772ZM20.3691 103.622C19.417 103.377 18.6872 102.961 18.0035 102.274C17.3073 101.575 16.9424 100.922 16.7494 100.015C16.5859 99.254 16.6446 98.0226 16.8711 97.3778C17.4205 95.8345 18.7711 94.6905 20.6166 94.2037C21.1702 94.0581 21.5603 94.029 23.4603 93.9957L25.6622 93.9541C25.4777 92.1445 24.513 91.637 23.3135 91.5081C21.6525 91.5081 20.0587 91.6911 18.5698 92.2901L18.6117 89.3116C20.5117 88.7375 22.7095 88.3673 24.5843 88.6626C26.4717 88.9913 27.7678 89.8732 28.4137 91.2751C28.8373 92.1945 28.8583 92.5023 28.8583 98.2015V103.456H25.6497L25.6035 102.416C24.8863 102.969 24.0265 103.456 23.2254 103.651C22.4956 103.822 21.0905 103.805 20.3691 103.618V103.622Z" fill="#141414"/>
<path d="M23.1757 100.792C24.2662 100.451 24.8702 99.9351 25.6419 99.2196V96.8359L23.6539 96.8651C21.8294 96.89 21.628 96.9067 21.2212 97.0689C20.7514 97.2561 20.2859 97.6721 20.0636 98.1047C19.7993 98.6289 19.9168 99.5691 20.3152 100.097C20.8437 100.796 22.0349 101.087 23.1757 100.792Z" fill="white"/>
<path d="M34.4044 103.667C33.6284 103.455 32.8902 102.935 32.5085 102.332C32.4079 102.17 32.2401 101.812 32.1395 101.533C31.7662 97.8892 31.9172 96.4873 31.8752 91.7033L29.8242 91.6575V88.8787L31.8752 88.8329L31.9549 85.1055L35.1258 84.0156L35.1677 88.8329L38.7454 88.8745V91.6575L35.1677 91.6991V95.7635C35.1677 99.7071 35.1719 99.8361 35.3313 100.148C35.5871 100.647 36.0401 100.835 36.9838 100.83C37.5752 100.843 38.1372 100.718 38.7077 100.585C38.7622 101.587 38.7454 102.357 38.7454 103.439C37.3571 103.638 35.7675 103.992 34.4044 103.659V103.667ZM66.1549 103.663C63.5838 103.085 61.9145 101.625 61.1679 99.3078C60.6143 97.5897 60.6185 94.9065 61.1679 93.1759C61.9103 90.8671 63.8187 89.1491 66.1423 88.7039C67.4509 88.4543 69.1706 88.654 70.2149 89.174C72.6476 90.3929 73.9772 93.3715 73.6459 96.8617L73.5955 97.3983H64.1375V97.6188C64.1375 97.9392 64.3514 98.7046 64.5485 99.0873C64.8044 99.5823 65.4461 100.211 65.941 100.452C66.6918 100.818 67.3461 100.926 68.4785 100.876C69.6991 100.822 70.6889 100.577 71.7123 100.073L72.4169 99.7279V102.744L71.7962 103.027C70.6511 103.547 69.8459 103.705 68.1598 103.738C67.0567 103.759 66.5408 103.738 66.1591 103.651L66.1549 103.663Z" fill="#141414"/>
<path d="M70.2981 94.5736C70.3233 94.507 70.2855 94.2158 70.2142 93.9288C69.8074 92.323 68.8007 91.4827 67.274 91.4785C66.6743 91.4785 66.5233 91.5076 66.0703 91.7198C65.4663 91.9985 64.963 92.4603 64.6316 93.0344C64.359 93.5044 64.0948 94.3864 64.1661 94.5736H70.2981Z" fill="#FFFFFB"/>
<path d="M90.6568 103.676C89.5285 103.356 88.7526 102.632 88.3919 101.563C88.2157 101.039 88.2115 100.939 88.1696 96.3669L88.1277 91.7036L86.0767 91.6578V88.8789L88.1277 88.8332L88.2073 85.11L91.3614 84.0117L91.4243 88.8332L94.9224 88.8748V91.6578L91.4243 91.6994V95.8053C91.4243 99.7781 91.4285 99.9196 91.5879 100.19C91.848 100.635 92.3429 100.835 93.2069 100.835C93.857 100.835 94.4316 100.76 94.7881 100.623L94.742 103.497C94.6413 103.518 94.3981 103.576 94.2009 103.622C93.6221 103.759 91.093 103.797 90.6652 103.676H90.6568ZM0.0859375 84.0908L3.24422 84.1324L11.6789 97.6399L11.7376 84.0908H14.8707V103.464L11.725 103.422L3.29035 90.1144L3.21486 103.46H0.0859375V84.0866V84.0908ZM43.2029 103.364C41.8692 96.9368 40.4221 90.5304 39.1261 84.0949L42.5235 84.124L45.1617 97.045L48.5003 84.0949H51.6753L55.0182 97.1573C55.9115 92.8476 56.6665 88.4796 57.4676 84.1448L60.6804 84.1948C59.355 90.9756 58.2477 96.2588 56.8217 103.443C55.706 103.464 54.5904 103.464 53.4705 103.464L51.755 96.7621L49.9851 90.1644C48.7226 94.8444 47.804 98.422 46.4954 103.46L43.1987 103.36L43.2029 103.364Z" fill="#141414"/>
<path d="M41.5508 50.5859L53.3996 70.6039H76.9545L65.1477 50.5859H41.555H41.5508Z" fill="#141414"/>
<path d="M76.9514 30.3262L88.6659 50.5812L76.9514 70.5991L65.1445 50.5812L76.9514 30.3262Z" fill="#141414"/>
<path d="M24.0449 20.0928H47.537L59.2851 0H35.7259L24.0449 20.0928Z" fill="#141414"/>
<path d="M59.2849 0L71.0289 20.0928L59.2849 40.273L47.541 20.0928L59.2849 0Z" fill="#141414"/>
<path d="M18.028 30.3262L6.38477 50.5812H29.8768L41.5536 30.3262H18.028Z" fill="#141414"/>
<path d="M6.38477 50.5859L18.028 70.6039H41.5536L29.8768 50.5859H6.38477Z" fill="#141414"/>
</g>
<defs>
<clipPath id="clip0_368_1177">
<rect width="95" height="104" fill="white"/>
</clipPath>
</defs>
</svg>
