<svg width="179" height="49" viewBox="0 0 179 49" fill="none" xmlns="http://www.w3.org/2000/svg">
<g clip-path="url(#clip0_370_1426)">
<path d="M25.6493 0.173828C47.218 1.66744 56.2704 28.9725 39.7205 43.1307C29.2056 52.1391 12.7328 50.2876 4.77344 38.9144C14.5802 38.8521 31.3763 40.9992 36.2874 29.8438C40.321 20.711 33.193 10.8158 23.3862 11.5471C22.3086 11.6248 21.2925 12.0605 20.2302 12.1072L12.6558 3.20773C15.5655 1.43406 19.0756 0.484997 22.4625 0.313854L22.7088 0.173828H25.6493Z" fill="#141414"/>
<path d="M69.5247 7.54935C82.7492 6.55361 91.9709 20.8207 85.5973 32.6451C79.9472 43.1471 65.445 44.6251 57.8089 35.4768C48.9721 24.897 55.8999 8.57621 69.5247 7.54935ZM69.6786 15.4997C58.1168 16.8222 59.6871 34.7455 71.6492 33.6876C83.3804 32.6451 81.7331 14.115 69.6786 15.4997Z" fill="#141414"/>
<path d="M122.746 8.2014L123.285 7.95246C131.044 8.35698 147.579 5.15194 146.562 17.8632C146.332 20.7726 145.162 21.6439 143.329 23.4798C141.497 25.3157 143.114 23.6198 143.16 23.8532C147.825 25.6424 148.625 31.788 146.485 35.8643C144.653 39.3494 140.605 40.7808 136.91 41.0142C132.307 41.2942 127.395 40.7808 122.761 41.0142V8.2014H122.746ZM130.628 21.3794H136.278C136.34 21.3794 137.141 20.9127 137.279 20.8193C139.173 19.4657 139.188 15.9028 137.033 14.8449C136.879 14.7671 136.217 14.5026 136.125 14.5026H130.628V21.3638V21.3794ZM130.628 34.6196H136.586C136.71 34.6196 137.864 34.044 138.049 33.904C140.22 32.3637 140.358 28.8163 138.111 27.3072C137.88 27.1516 136.802 26.6537 136.586 26.6537H130.628V34.6041V34.6196Z" fill="#141414"/>
<path d="M174.089 29.642L178.862 36.2387C169.348 46.554 151.843 40.8907 149.98 26.8881C147.794 10.4117 167.731 0.921053 179 12.8699L174.305 19.4978C174.151 19.529 172.504 17.5997 172.134 17.3197C165.083 11.7653 155.03 19.2022 158.186 27.8061C160.711 34.6985 170.179 35.8498 174.074 29.642H174.089Z" fill="#141414"/>
<path d="M114.864 19.6528C110.614 13.0093 100.1 14.6429 98.3907 22.4533C96.2046 32.4885 108.998 37.9028 114.787 29.6257L119.482 36.2536C112.523 43.5194 100.931 43.2238 94.3879 35.5535C87.9065 27.9454 89.5538 15.9965 97.7595 10.411C104.518 5.8213 114.14 6.69258 119.513 12.9937L114.879 19.6372L114.864 19.6528Z" fill="#141414"/>
<path d="M1.29401 32.131C-0.0453705 28.5837 -0.276298 24.523 0.293324 20.7578L11.5626 24.3674C11.6242 27.1212 12.6865 29.4705 14.2106 31.6798C14.4877 31.711 14.3645 31.322 14.3491 31.1509C14.1182 29.1594 13.4716 27.2146 13.7487 25.1297L25.8032 28.9571V32.1466H1.29401V32.131Z" fill="#141414"/>
<path d="M18.2276 13.2591C16.8266 13.8503 15.8259 15.0172 14.7483 16.0285L5.08008 9.60288C6.46565 7.7981 8.06675 6.16446 9.94496 4.88867L18.2122 13.2591H18.2276Z" fill="#141414"/>
<path d="M13.2859 17.6303C12.7009 19.1083 11.8542 20.5086 11.731 22.1422L0.908203 17.7859C1.61638 15.7944 2.33996 13.7873 3.4792 12.0137L13.2705 17.6458L13.2859 17.6303Z" fill="#141414"/>
<path d="M23.1698 34.9322L20.7681 37.2659H3.77183C3.43313 37.2037 2.94049 36.1924 2.74035 35.819C2.38626 35.15 2.04756 34.4343 1.83203 33.6875H11.5002L12.7318 34.9322H23.1698Z" fill="#141414"/>
<path d="M25.8034 27.6041L14.0415 22.9988C13.9491 22.4231 15.3501 19.1092 15.8273 19.0625L25.8034 24.8814V27.6041Z" fill="#141414"/>
<path d="M25.8023 23.4029L17.1348 17.7085C17.1348 17.1951 20.2292 15.4992 20.7372 15.6237L25.7869 20.509V23.3874L25.8023 23.4029Z" fill="#141414"/>
</g>
<defs>
<clipPath id="clip0_370_1426">
<rect width="179" height="48.6513" fill="white" transform="translate(0 0.173828)"/>
</clipPath>
</defs>
</svg>
