<svg width="177" height="177" viewBox="0 0 177 177" fill="none" xmlns="http://www.w3.org/2000/svg">
<path d="M176 48.0725C176 22.0295 154.861 0.999023 128.927 0.999023C111.71 0.999023 96.7814 10.1522 88.5 23.882C80.3275 10.1522 65.2902 0.999023 48.0735 0.999023C22.1395 0.999023 1 22.1385 1 48.0725C1 65.2892 10.1532 80.3265 23.8829 88.499C10.1532 96.7805 1 111.818 1 128.926C1 154.969 22.1395 175.999 48.0735 175.999C65.2902 175.999 80.2186 166.846 88.5 153.116C96.7814 166.846 111.71 175.999 128.927 175.999C154.969 175.999 176 154.86 176 128.926C176 111.709 166.847 96.7805 153.117 88.499C166.847 80.3265 176 65.2892 176 48.0725Z" stroke="#302E2E"/>
</svg>
