<svg width="71" height="71" viewBox="0 0 71 71" fill="none" xmlns="http://www.w3.org/2000/svg">
<path d="M71 19.0984C71 8.53238 62.4234 0 51.9016 0C44.9166 0 38.8599 3.71357 35.5 9.28393C32.1843 3.71357 26.0834 0 19.0984 0C8.57659 0 0 8.57659 0 19.0984C0 26.0834 3.71357 32.1843 9.28393 35.5C3.71357 38.8599 0 44.9608 0 51.9016C0 62.4676 8.57659 71 19.0984 71C26.0834 71 32.1401 67.2864 35.5 61.7161C38.8599 67.2864 44.9166 71 51.9016 71C62.4676 71 71 62.4234 71 51.9016C71 44.9166 67.2864 38.8599 61.7161 35.5C67.2864 32.1843 71 26.0834 71 19.0984Z" fill="#252525"/>
</svg>
